<svg xmlns="http://www.w3.org/2000/svg" xmlns:xlink="http://www.w3.org/1999/xlink" viewBox="0 0 384 480"><defs><style>.cls-1{fill:url(#Dégradé_sans_nom_15);}.cls-2{fill:url(#Dégradé_sans_nom_15-2);}.cls-3{fill:url(#Dégradé_sans_nom_15-3);}.cls-4{fill:url(#Dégradé_sans_nom_15-4);}.cls-5{fill:url(#Dégradé_sans_nom_15-5);}.cls-6{fill:url(#Dégradé_sans_nom_15-6);}.cls-7{fill:url(#Dégradé_sans_nom_15-7);}.cls-8{fill:url(#Dégradé_sans_nom_15-8);}.cls-9{fill:url(#Dégradé_sans_nom_15-9);}.cls-10{fill:url(#Dégradé_sans_nom_15-10);}.cls-11{fill:url(#Dégradé_sans_nom_15-11);}.cls-12{fill:url(#Dégradé_sans_nom_15-12);}.cls-13{fill:url(#Dégradé_sans_nom_15-13);}.cls-14{fill:url(#Dégradé_sans_nom_15-14);}.cls-15{fill:url(#Dégradé_sans_nom_15-15);}.cls-16{fill:url(#Dégradé_sans_nom_15-16);}</style><linearGradient id="Dégradé_sans_nom_15" x1="-1.75" y1="-45.35" x2="477.25" y2="432.65" gradientUnits="userSpaceOnUse"><stop offset="0" stop-color="#fd7054"/><stop offset="1" stop-color="#ff3b6a"/></linearGradient><linearGradient id="Dégradé_sans_nom_15-2" x1="-163.7" y1="116.94" x2="315.3" y2="594.94" xlink:href="#Dégradé_sans_nom_15"/><linearGradient id="Dégradé_sans_nom_15-3" x1="-211.62" y1="164.96" x2="267.38" y2="642.96" xlink:href="#Dégradé_sans_nom_15"/><linearGradient id="Dégradé_sans_nom_15-4" x1="-195.62" y1="148.93" x2="283.38" y2="626.93" xlink:href="#Dégradé_sans_nom_15"/><linearGradient id="Dégradé_sans_nom_15-5" x1="-179.65" y1="132.93" x2="299.35" y2="610.93" xlink:href="#Dégradé_sans_nom_15"/><linearGradient id="Dégradé_sans_nom_15-6" x1="-163.68" y1="116.93" x2="315.32" y2="594.93" xlink:href="#Dégradé_sans_nom_15"/><linearGradient id="Dégradé_sans_nom_15-7" x1="-131.75" y1="84.93" x2="347.25" y2="562.93" xlink:href="#Dégradé_sans_nom_15"/><linearGradient id="Dégradé_sans_nom_15-8" x1="-147.72" y1="100.93" x2="331.28" y2="578.93" xlink:href="#Dégradé_sans_nom_15"/><linearGradient id="Dégradé_sans_nom_15-9" x1="-131.78" y1="84.96" x2="347.22" y2="562.96" xlink:href="#Dégradé_sans_nom_15"/><linearGradient id="Dégradé_sans_nom_15-10" x1="-115.78" y1="68.93" x2="363.22" y2="546.93" xlink:href="#Dégradé_sans_nom_15"/><linearGradient id="Dégradé_sans_nom_15-11" x1="-171.7" y1="124.96" x2="307.3" y2="602.96" xlink:href="#Dégradé_sans_nom_15"/><linearGradient id="Dégradé_sans_nom_15-12" x1="-75.88" y1="28.94" x2="403.12" y2="506.94" xlink:href="#Dégradé_sans_nom_15"/><linearGradient id="Dégradé_sans_nom_15-13" x1="-67.88" y1="20.93" x2="411.12" y2="498.93" xlink:href="#Dégradé_sans_nom_15"/><linearGradient id="Dégradé_sans_nom_15-14" x1="8.15" y1="-55.27" x2="487.15" y2="422.73" gradientTransform="translate(262.33 -91.65) rotate(74.03)" xlink:href="#Dégradé_sans_nom_15"/><linearGradient id="Dégradé_sans_nom_15-15" x1="-20.24" y1="-26.82" x2="458.76" y2="451.18" xlink:href="#Dégradé_sans_nom_15"/><linearGradient id="Dégradé_sans_nom_15-16" x1="36.74" y1="-83.92" x2="515.74" y2="394.08" xlink:href="#Dégradé_sans_nom_15"/></defs><title>langage</title><g id="Calque_2" data-name="Calque 2"><g id="Capa_1" data-name="Capa 1"><path class="cls-1" d="M344,0H40A40.05,40.05,0,0,0,0,40V256a40.05,40.05,0,0,0,40,40H149.39L138,336H112v16H272V336H246l-11.42-40H344a40.05,40.05,0,0,0,40-40V40A40.05,40.05,0,0,0,344,0ZM154.61,336,166,296H218l11.42,40ZM368,256a24,24,0,0,1-24,24H40a24,24,0,0,1-24-24V240H368Zm0-32H16V40A24,24,0,0,1,40,16H344a24,24,0,0,1,24,24Z"/><path class="cls-2" d="M256,368H32a8,8,0,0,0-8,8v96a8,8,0,0,0,8,8H256a8,8,0,0,0,8-8V376A8,8,0,0,0,256,368Zm-8,96H40V384H248Z"/><rect class="cls-3" x="56" y="432" width="16" height="16"/><rect class="cls-4" x="56" y="400" width="16" height="16"/><rect class="cls-5" x="88" y="400" width="16" height="16"/><rect class="cls-6" x="120" y="400" width="16" height="16"/><rect class="cls-7" x="184" y="400" width="16" height="16"/><rect class="cls-8" x="152" y="400" width="16" height="16"/><rect class="cls-9" x="216" y="432" width="16" height="16"/><rect class="cls-10" x="216" y="400" width="16" height="16"/><rect class="cls-11" x="88" y="432" width="112" height="16"/><path class="cls-12" d="M320,368a40,40,0,0,0-40,40v32a40,40,0,0,0,80,0V408A40,40,0,0,0,320,368Zm24,72a24,24,0,0,1-48,0V408a24,24,0,0,1,48,0Z"/><rect class="cls-13" x="312" y="400" width="16" height="16"/><rect class="cls-14" x="133.73" y="120.14" width="116.43" height="15.99" transform="translate(15.95 277.42) rotate(-74.03)"/><path class="cls-15" d="M149.12,94.14,138.88,81.86l-48,40a8,8,0,0,0-1,11.26,7.56,7.56,0,0,0,1,1l48,40,10.24-12.28L108.5,128Z"/><path class="cls-16" d="M294.14,122.88a7.56,7.56,0,0,0-1-1l-48-40L234.88,94.14,275.5,128l-40.62,33.86,10.24,12.28,48-40A8,8,0,0,0,294.14,122.88Z"/></g></g></svg>