<svg xmlns="http://www.w3.org/2000/svg" xmlns:xlink="http://www.w3.org/1999/xlink" viewBox="0 0 93 93"><defs><style>.cls-1{fill:url(#Dégradé_sans_nom_36);}.cls-2{fill:url(#Dégradé_sans_nom_36-2);}.cls-3{fill:url(#Dégradé_sans_nom_36-3);}.cls-4{fill:url(#Dégradé_sans_nom_36-4);}.cls-5{fill:url(#Dégradé_sans_nom_36-5);}.cls-6{fill:url(#Dégradé_sans_nom_36-6);}.cls-7{fill:url(#Dégradé_sans_nom_36-7);}.cls-8{fill:url(#Dégradé_sans_nom_36-8);}.cls-9{fill:url(#Dégradé_sans_nom_36-9);}.cls-10{fill:url(#Dégradé_sans_nom_36-10);}.cls-11{fill:url(#Dégradé_sans_nom_36-11);}.cls-12{fill:url(#Dégradé_sans_nom_36-12);}.cls-13{fill:url(#Dégradé_sans_nom_36-13);}.cls-14{fill:url(#Dégradé_sans_nom_36-15);}</style><linearGradient id="Dégradé_sans_nom_36" x1="5.72" y1="-0.28" x2="93.29" y2="87.29" gradientUnits="userSpaceOnUse"><stop offset="0" stop-color="#fd7054"/><stop offset="1" stop-color="#ff3b6a"/></linearGradient><linearGradient id="Dégradé_sans_nom_36-2" x1="9.85" y1="-4.4" x2="97.41" y2="83.16" xlink:href="#Dégradé_sans_nom_36"/><linearGradient id="Dégradé_sans_nom_36-3" x1="-4.4" y1="9.85" x2="83.16" y2="97.41" xlink:href="#Dégradé_sans_nom_36"/><linearGradient id="Dégradé_sans_nom_36-4" x1="15.85" y1="-10.4" x2="103.41" y2="77.16" xlink:href="#Dégradé_sans_nom_36"/><linearGradient id="Dégradé_sans_nom_36-5" x1="1.6" y1="3.85" x2="89.16" y2="91.41" xlink:href="#Dégradé_sans_nom_36"/><linearGradient id="Dégradé_sans_nom_36-6" x1="11.72" y1="-6.28" x2="99.29" y2="81.29" xlink:href="#Dégradé_sans_nom_36"/><linearGradient id="Dégradé_sans_nom_36-7" x1="17.9" y1="-12.46" x2="105.47" y2="75.1" xlink:href="#Dégradé_sans_nom_36"/><linearGradient id="Dégradé_sans_nom_36-8" x1="-7.96" y1="13.4" x2="79.6" y2="100.97" xlink:href="#Dégradé_sans_nom_36"/><linearGradient id="Dégradé_sans_nom_36-9" x1="-10.03" y1="15.47" x2="77.54" y2="103.04" xlink:href="#Dégradé_sans_nom_36"/><linearGradient id="Dégradé_sans_nom_36-10" x1="-4.88" y1="10.32" x2="82.69" y2="97.89" xlink:href="#Dégradé_sans_nom_36"/><linearGradient id="Dégradé_sans_nom_36-11" x1="-15.18" y1="20.62" x2="72.39" y2="108.19" xlink:href="#Dégradé_sans_nom_36"/><linearGradient id="Dégradé_sans_nom_36-12" x1="6.94" y1="-1.49" x2="94.5" y2="86.07" xlink:href="#Dégradé_sans_nom_36"/><linearGradient id="Dégradé_sans_nom_36-13" x1="2.72" y1="2.72" x2="90.29" y2="90.29" xlink:href="#Dégradé_sans_nom_36"/><linearGradient id="Dégradé_sans_nom_36-15" x1="8.72" y1="-3.28" x2="96.29" y2="84.29" xlink:href="#Dégradé_sans_nom_36"/></defs><title>Fichier 3</title><g id="Calque_2" data-name="Calque 2"><g id="Calque_1-2" data-name="Calque 1"><path class="cls-1" d="M22.5,39h48v3h-48Z"/><path class="cls-2" d="M51,45H70.5v3H51Z"/><path class="cls-3" d="M22.5,45H42v3H22.5Z"/><path class="cls-4" d="M51,33H70.5v3H51Z"/><path class="cls-5" d="M22.5,33H42v3H22.5Z"/><path class="cls-6" d="M22.5,27h48v3h-48Z"/><path class="cls-7" d="M79.5,34.76V27a9,9,0,0,0-9-9v3a6,6,0,0,1,6,6v7.76A11.65,11.65,0,0,0,79,42a11.65,11.65,0,0,0-2.5,7.24V57a6,6,0,0,1-6,6v3a9,9,0,0,0,9-9V49.24a8.69,8.69,0,0,1,2.56-6.18L83.12,42l-1.06-1.06A8.69,8.69,0,0,1,79.5,34.76Z"/><path class="cls-8" d="M16.5,57V49.24A11.65,11.65,0,0,0,14,42a11.65,11.65,0,0,0,2.5-7.24V27a6,6,0,0,1,6-6V18a9,9,0,0,0-9,9v7.76a8.69,8.69,0,0,1-2.56,6.18L9.88,42l1.06,1.06a8.69,8.69,0,0,1,2.56,6.18V57a9,9,0,0,0,9,9V63A6,6,0,0,1,16.5,57Z"/><path class="cls-9" d="M46.5,66a6,6,0,1,0,6,6A6,6,0,0,0,46.5,66Zm0,9a3,3,0,1,1,3-3A3,3,0,0,1,46.5,75Z"/><path class="cls-10" d="M46.5,60a12.07,12.07,0,0,0-5.71,1.44l1.43,2.64A9,9,0,0,1,55.5,72a9,9,0,0,1-1.08,4.28l2.64,1.43A12,12,0,0,0,46.5,60Z"/><path class="cls-11" d="M46.5,81a9,9,0,0,1-7.92-13.28l-2.64-1.43A12,12,0,0,0,52.21,82.56l-1.43-2.64A9,9,0,0,1,46.5,81Z"/><path class="cls-12" d="M93,4.5A4.51,4.51,0,0,0,88.5,0H4.5A4.51,4.51,0,0,0,0,4.5v69H25.5v2.67l3.75.94a18.41,18.41,0,0,0,1.44,3.47l-2,3.32,5.9,5.9,3.32-2a16.72,16.72,0,0,0,3.47,1.44L42.33,93h8.34l.94-3.75a18.41,18.41,0,0,0,3.47-1.44l3.32,2,5.9-5.9-2-3.32a16.72,16.72,0,0,0,1.44-3.47l3.76-.94V73.5H93ZM4.5,3h84A1.5,1.5,0,0,1,90,4.5V12H3V4.5A1.5,1.5,0,0,1,4.5,3Zm60,70.83-3.22.8-.21.89a15.22,15.22,0,0,1-1.78,4.29l-.48.78,1.71,2.84L57.94,86l-2.85-1.71-.78.48A15.22,15.22,0,0,1,50,86.57l-.88.21L48.33,90H44.67l-.8-3.22L43,86.57a15.22,15.22,0,0,1-4.29-1.78l-.78-.48L35.07,86l-2.59-2.58,1.71-2.85-.48-.78a15.22,15.22,0,0,1-1.78-4.29l-.21-.88-3.22-.81V70.17l3.22-.8.21-.89a15.22,15.22,0,0,1,1.78-4.29l.48-.78-1.71-2.84L35.06,58l2.85,1.71.78-.48A15.22,15.22,0,0,1,43,57.43l.88-.21L44.67,54h3.66l.8,3.22.89.21a15.22,15.22,0,0,1,4.29,1.78l.78.48L57.93,58l2.59,2.58-1.71,2.85.48.78a15.22,15.22,0,0,1,1.78,4.29l.21.88,3.22.81Zm3-3.33V67.83l-3.75-.94a18.41,18.41,0,0,0-1.44-3.47l2-3.32-5.9-5.9-3.32,2a16.72,16.72,0,0,0-3.47-1.44L50.67,51H42.33l-.94,3.75a18.41,18.41,0,0,0-3.47,1.44l-3.32-2-5.9,5.9,2,3.32a16.72,16.72,0,0,0-1.44,3.47l-3.76.94V70.5H3V15H90V70.5Z"/><path class="cls-13" d="M6,6H9V9H6Z"/><path class="cls-1" d="M12,6h3V9H12Z"/><path class="cls-14" d="M18,6h3V9H18Z"/></g></g></svg>